<svg xmlns="http://www.w3.org/2000/svg" xmlns:xlink="http://www.w3.org/1999/xlink" width="500" zoomAndPan="magnify" viewBox="0 0 375 374.999991" height="500" preserveAspectRatio="xMidYMid meet" version="1.0"><defs><g/><clipPath id="4ec43acc89"><path d="M 112.5 119.8125 L 262.5 119.8125 L 262.5 255.5625 L 112.5 255.5625 Z M 112.5 119.8125 " clip-rule="nonzero"/></clipPath></defs><g clip-path="url(#4ec43acc89)"><path fill="#2aaae2" d="M 262.511719 143.582031 L 262.511719 119.878906 L 175.253906 119.878906 L 175.253906 159.359375 L 112.5 159.359375 L 112.5 255.484375 L 136.140625 255.484375 L 136.140625 220.707031 L 175.253906 220.707031 L 175.253906 255.484375 L 198.894531 255.484375 L 198.894531 183.066406 L 237.367188 183.066406 L 237.367188 159.359375 L 198.894531 159.359375 L 198.894531 143.582031 Z M 136.140625 197.003906 L 136.140625 183.066406 L 175.253906 183.066406 L 175.253906 197.003906 Z M 136.140625 197.003906 " fill-opacity="1" fill-rule="nonzero"/></g><g fill="#2aaae2" fill-opacity="1"><g transform="translate(184.359367, 195.374987)"><g><path d="M 1.25 -1.53125 C 1.25 -2.132812 1.410156 -2.585938 1.734375 -2.890625 C 2.054688 -3.203125 2.523438 -3.359375 3.140625 -3.359375 C 3.742188 -3.359375 4.207031 -3.203125 4.53125 -2.890625 C 4.851562 -2.578125 5.015625 -2.125 5.015625 -1.53125 C 5.015625 -0.96875 4.847656 -0.519531 4.515625 -0.1875 C 4.191406 0.132812 3.734375 0.296875 3.140625 0.296875 C 2.546875 0.296875 2.082031 0.132812 1.75 -0.1875 C 1.414062 -0.507812 1.25 -0.957031 1.25 -1.53125 Z M 1.25 -1.53125 "/></g></g></g></svg>